<svg width="500" height="500" viewBox="0 0 500 500" fill="none" xmlns="http://www.w3.org/2000/svg">
<g filter="url(#filter0_i_1_5)">
<g filter="url(#filter1_i_1_5)">
<path d="M378.578 73.0276C388.723 59.0648 408.428 55.8386 421.017 67.6448C451.651 96.3738 474.683 132.485 487.764 172.746C504.079 222.956 504.079 277.043 487.764 327.254C471.45 377.465 439.658 421.222 396.947 452.254C354.235 483.286 302.795 500 250.001 500C197.206 500 145.766 483.287 103.054 452.255C60.3423 421.223 28.5508 377.466 12.2361 327.255C-4.07852 277.044 -4.07871 222.958 12.2356 172.747C25.3169 132.486 48.3489 96.3746 78.9825 67.6455C91.5715 55.8393 111.277 59.0654 121.421 73.0281V73.0281C131.566 86.9908 128.237 106.375 116.151 118.696C95.9538 139.285 80.6758 164.363 71.6767 192.06C59.441 229.718 59.4411 270.283 71.6771 307.941C83.9131 345.599 107.757 378.417 139.791 401.691C171.825 424.965 210.404 437.5 250 437.5C289.596 437.5 328.176 424.965 360.21 401.691C392.244 378.416 416.087 345.599 428.323 307.941C440.559 270.282 440.559 229.717 428.323 192.059C419.324 164.363 404.046 139.284 383.848 118.695C371.762 106.375 368.434 86.9903 378.578 73.0276V73.0276Z" fill="url(#paint0_linear_1_5)"/>
</g>
<path d="M182.01 297.17C179.01 297.17 176.13 296.75 173.37 295.91C170.61 295.01 168.15 293.72 165.99 292.04C163.89 290.36 162.21 288.32 160.95 285.92C159.69 283.52 159.06 280.79 159.06 277.73C159.06 275.81 159.36 274.04 159.96 272.42C160.56 270.8 161.34 269.36 162.3 268.1C163.32 266.84 164.43 265.76 165.63 264.86C166.89 263.96 168.15 263.24 169.41 262.7C167.25 261.56 165.42 259.94 163.92 257.84C162.42 255.74 161.67 253.25 161.67 250.37C161.67 247.79 162.21 245.45 163.29 243.35C164.37 241.19 165.84 239.36 167.7 237.86C169.56 236.3 171.72 235.13 174.18 234.35C176.64 233.51 179.25 233.09 182.01 233.09C184.77 233.09 187.38 233.51 189.84 234.35C192.3 235.13 194.46 236.3 196.32 237.86C198.18 239.36 199.65 241.19 200.73 243.35C201.81 245.45 202.35 247.79 202.35 250.37C202.35 253.25 201.6 255.74 200.1 257.84C198.6 259.94 196.77 261.56 194.61 262.7C195.87 263.24 197.1 263.96 198.3 264.86C199.56 265.76 200.67 266.84 201.63 268.1C202.65 269.36 203.46 270.8 204.06 272.42C204.66 274.04 204.96 275.81 204.96 277.73C204.96 280.79 204.33 283.52 203.07 285.92C201.81 288.32 200.1 290.36 197.94 292.04C195.84 293.72 193.41 295.01 190.65 295.91C187.89 296.75 185.01 297.17 182.01 297.17ZM182.01 286.01C184.83 286.01 187.17 285.2 189.03 283.58C190.95 281.9 191.91 279.77 191.91 277.19C191.91 274.55 190.95 272.42 189.03 270.8C187.17 269.18 184.83 268.37 182.01 268.37C179.19 268.37 176.82 269.18 174.9 270.8C173.04 272.42 172.11 274.55 172.11 277.19C172.11 279.77 173.04 281.9 174.9 283.58C176.82 285.2 179.19 286.01 182.01 286.01ZM190.2 251.18C190.2 249.08 189.39 247.37 187.77 246.05C186.21 244.67 184.29 243.98 182.01 243.98C179.73 243.98 177.78 244.67 176.16 246.05C174.6 247.37 173.82 249.08 173.82 251.18C173.82 253.4 174.6 255.17 176.16 256.49C177.78 257.81 179.73 258.47 182.01 258.47C184.29 258.47 186.21 257.81 187.77 256.49C189.39 255.17 190.2 253.4 190.2 251.18ZM211.991 265.13C211.991 260.93 212.531 256.91 213.611 253.07C214.751 249.17 216.431 245.75 218.651 242.81C220.871 239.87 223.631 237.53 226.931 235.79C230.231 233.99 234.071 233.09 238.451 233.09C242.831 233.09 246.671 233.99 249.971 235.79C253.271 237.53 256.031 239.87 258.251 242.81C260.471 245.75 262.121 249.17 263.201 253.07C264.341 256.91 264.911 260.93 264.911 265.13C264.911 269.33 264.341 273.38 263.201 277.28C262.121 281.12 260.471 284.51 258.251 287.45C256.031 290.39 253.271 292.76 249.971 294.56C246.671 296.3 242.831 297.17 238.451 297.17C234.071 297.17 230.231 296.3 226.931 294.56C223.631 292.76 220.871 290.39 218.651 287.45C216.431 284.51 214.751 281.12 213.611 277.28C212.531 273.38 211.991 269.33 211.991 265.13ZM251.501 265.13C251.501 262.67 251.231 260.27 250.691 257.93C250.211 255.59 249.431 253.52 248.351 251.72C247.331 249.86 245.981 248.39 244.301 247.31C242.681 246.17 240.731 245.6 238.451 245.6C236.171 245.6 234.191 246.17 232.511 247.31C230.891 248.39 229.541 249.86 228.461 251.72C227.441 253.52 226.661 255.59 226.121 257.93C225.641 260.27 225.401 262.67 225.401 265.13C225.401 267.59 225.641 269.99 226.121 272.33C226.661 274.67 227.441 276.77 228.461 278.63C229.541 280.43 230.891 281.9 232.511 283.04C234.191 284.12 236.171 284.66 238.451 284.66C240.731 284.66 242.681 284.12 244.301 283.04C245.981 281.9 247.331 280.43 248.351 278.63C249.431 276.77 250.211 274.67 250.691 272.33C251.231 269.99 251.501 267.59 251.501 265.13ZM302.512 248.3C302.512 250.4 302.092 252.35 301.252 254.15C300.472 255.95 299.362 257.54 297.922 258.92C296.542 260.24 294.922 261.29 293.062 262.07C291.202 262.79 289.192 263.15 287.032 263.15C284.872 263.15 282.862 262.79 281.002 262.07C279.142 261.29 277.522 260.24 276.142 258.92C274.762 257.54 273.652 255.95 272.812 254.15C272.032 252.35 271.642 250.4 271.642 248.3C271.642 246.2 272.032 244.25 272.812 242.45C273.652 240.65 274.762 239.09 276.142 237.77C277.522 236.39 279.142 235.34 281.002 234.62C282.862 233.84 284.872 233.45 287.032 233.45C289.192 233.45 291.202 233.84 293.062 234.62C294.922 235.34 296.542 236.39 297.922 237.77C299.362 239.09 300.472 240.65 301.252 242.45C302.092 244.25 302.512 246.2 302.512 248.3ZM287.032 254.51C288.772 254.51 290.212 253.91 291.352 252.71C292.492 251.51 293.062 250.04 293.062 248.3C293.062 246.56 292.492 245.09 291.352 243.89C290.212 242.69 288.772 242.09 287.032 242.09C285.292 242.09 283.852 242.69 282.712 243.89C281.572 245.09 281.002 246.56 281.002 248.3C281.002 250.04 281.572 251.51 282.712 252.71C283.852 253.91 285.292 254.51 287.032 254.51ZM277.312 296L323.122 234.17H335.092L289.282 296H277.312ZM325.282 296.72C323.122 296.72 321.112 296.36 319.252 295.64C317.392 294.86 315.772 293.81 314.392 292.49C313.012 291.11 311.902 289.52 311.062 287.72C310.282 285.92 309.892 283.97 309.892 281.87C309.892 279.77 310.282 277.82 311.062 276.02C311.902 274.22 313.012 272.66 314.392 271.34C315.772 269.96 317.392 268.91 319.252 268.19C321.112 267.41 323.122 267.02 325.282 267.02C327.442 267.02 329.452 267.41 331.312 268.19C333.232 268.91 334.882 269.96 336.262 271.34C337.642 272.66 338.722 274.22 339.502 276.02C340.342 277.82 340.762 279.77 340.762 281.87C340.762 283.97 340.342 285.92 339.502 287.72C338.722 289.52 337.642 291.11 336.262 292.49C334.882 293.81 333.232 294.86 331.312 295.64C329.452 296.36 327.442 296.72 325.282 296.72ZM325.282 288.08C327.022 288.08 328.462 287.48 329.602 286.28C330.802 285.08 331.402 283.61 331.402 281.87C331.402 280.13 330.802 278.66 329.602 277.46C328.462 276.26 327.022 275.66 325.282 275.66C323.542 275.66 322.102 276.26 320.962 277.46C319.822 278.66 319.252 280.13 319.252 281.87C319.252 283.61 319.822 285.08 320.962 286.28C322.102 287.48 323.542 288.08 325.282 288.08Z" fill="black"/>
</g>
<defs>
<filter id="filter0_i_1_5" x="0" y="60.4057" width="500" height="443.594" filterUnits="userSpaceOnUse" color-interpolation-filters="sRGB">
<feFlood flood-opacity="0" result="BackgroundImageFix"/>
<feBlend mode="normal" in="SourceGraphic" in2="BackgroundImageFix" result="shape"/>
<feColorMatrix in="SourceAlpha" type="matrix" values="0 0 0 0 0 0 0 0 0 0 0 0 0 0 0 0 0 0 127 0" result="hardAlpha"/>
<feOffset dy="4"/>
<feGaussianBlur stdDeviation="2"/>
<feComposite in2="hardAlpha" operator="arithmetic" k2="-1" k3="1"/>
<feColorMatrix type="matrix" values="0 0 0 0 0 0 0 0 0 0 0 0 0 0 0 0 0 0 0.25 0"/>
<feBlend mode="normal" in2="shape" result="effect1_innerShadow_1_5"/>
</filter>
<filter id="filter1_i_1_5" x="0" y="60.4057" width="500" height="443.594" filterUnits="userSpaceOnUse" color-interpolation-filters="sRGB">
<feFlood flood-opacity="0" result="BackgroundImageFix"/>
<feBlend mode="normal" in="SourceGraphic" in2="BackgroundImageFix" result="shape"/>
<feColorMatrix in="SourceAlpha" type="matrix" values="0 0 0 0 0 0 0 0 0 0 0 0 0 0 0 0 0 0 127 0" result="hardAlpha"/>
<feOffset dy="4"/>
<feGaussianBlur stdDeviation="2"/>
<feComposite in2="hardAlpha" operator="arithmetic" k2="-1" k3="1"/>
<feColorMatrix type="matrix" values="0 0 0 0 0 0 0 0 0 0 0 0 0 0 0 0 0 0 0.25 0"/>
<feBlend mode="normal" in2="shape" result="effect1_innerShadow_1_5"/>
</filter>
<linearGradient id="paint0_linear_1_5" x1="250" y1="0" x2="250" y2="500" gradientUnits="userSpaceOnUse">
<stop stop-color="#4158D0"/>
<stop offset="0.489583" stop-color="#C850C0"/>
<stop offset="1" stop-color="#FFCC70"/>
</linearGradient>
</defs>
</svg>
