<svg width="500" height="500" viewBox="0 0 500 500" fill="none" xmlns="http://www.w3.org/2000/svg">
<g filter="url(#filter0_i_1_5)">
<g filter="url(#filter1_i_1_5)">
<path d="M284.22 33.9432C286.92 16.8968 303.013 5.07614 319.59 9.88009C369.458 24.3318 413.867 54.0477 446.329 95.2265C485.276 144.63 504.165 206.9 499.229 269.615C494.294 332.33 465.895 390.878 419.7 433.581C373.505 476.283 312.909 500 250 500C187.091 500 126.495 476.283 80.2997 433.581C34.1045 390.878 5.70639 332.329 0.770657 269.615C-4.16507 206.9 14.7244 144.63 53.6708 95.2264C86.1336 54.0476 130.542 24.3317 180.41 9.88005C196.987 5.0761 213.08 16.8967 215.78 33.9432V33.9432C218.48 50.9896 206.714 66.7497 190.351 72.2403C155.987 83.7718 125.47 105.104 102.753 133.92C73.5433 170.972 59.3762 217.675 63.078 264.711C66.7798 311.747 88.0784 355.659 122.725 387.685C157.371 419.712 202.818 437.5 250 437.5C297.181 437.5 342.629 419.712 377.275 387.686C411.922 355.659 433.22 311.747 436.922 264.711C440.624 217.675 426.457 170.972 397.247 133.92C374.53 105.104 344.014 83.7718 309.649 72.2403C293.286 66.7498 281.52 50.9896 284.22 33.9432V33.9432Z" fill="url(#paint0_linear_1_5)"/>
</g>
<path d="M163.06 252.86C163.06 249.62 163.66 246.62 164.86 243.86C166.06 241.04 167.71 238.64 169.81 236.66C171.91 234.62 174.37 233.03 177.19 231.89C180.07 230.69 183.19 230.09 186.55 230.09C189.91 230.09 193 230.66 195.82 231.8C198.7 232.94 201.19 234.53 203.29 236.57C205.39 238.55 207.04 240.92 208.24 243.68C209.44 246.44 210.04 249.44 210.04 252.68C210.04 258.38 207.97 264.44 203.83 270.86L189.52 293H174.22L188.08 273.02C187.36 273.32 186.58 273.53 185.74 273.65C184.96 273.77 184.24 273.83 183.58 273.83C180.58 273.83 177.82 273.29 175.3 272.21C172.84 271.07 170.68 269.57 168.82 267.71C167.02 265.79 165.61 263.57 164.59 261.05C163.57 258.47 163.06 255.74 163.06 252.86ZM176.11 252.41C176.11 253.85 176.38 255.2 176.92 256.46C177.46 257.72 178.21 258.8 179.17 259.7C180.13 260.6 181.24 261.32 182.5 261.86C183.76 262.4 185.11 262.67 186.55 262.67C187.99 262.67 189.34 262.4 190.6 261.86C191.92 261.32 193.03 260.6 193.93 259.7C194.89 258.8 195.64 257.75 196.18 256.55C196.72 255.29 196.99 253.94 196.99 252.5C196.99 251.06 196.72 249.71 196.18 248.45C195.64 247.19 194.89 246.11 193.93 245.21C193.03 244.25 191.95 243.5 190.69 242.96C189.43 242.42 188.08 242.15 186.64 242.15C185.2 242.15 183.82 242.42 182.5 242.96C181.24 243.5 180.13 244.25 179.17 245.21C178.21 246.11 177.46 247.19 176.92 248.45C176.38 249.65 176.11 250.97 176.11 252.41ZM218.565 264.47L223.155 231.17H258.615V242.69H233.235L231.525 254.48C232.965 253.28 234.675 252.38 236.655 251.78C238.695 251.12 240.795 250.79 242.955 250.79C245.895 250.79 248.595 251.33 251.055 252.41C253.515 253.49 255.615 254.96 257.355 256.82C259.155 258.68 260.535 260.87 261.495 263.39C262.515 265.85 263.025 268.49 263.025 271.31C263.025 274.55 262.425 277.58 261.225 280.4C260.085 283.16 258.465 285.56 256.365 287.6C254.325 289.64 251.895 291.26 249.075 292.46C246.255 293.6 243.225 294.17 239.985 294.17C236.565 294.17 233.445 293.69 230.625 292.73C227.865 291.71 225.495 290.33 223.515 288.59C221.535 286.79 219.975 284.66 218.835 282.2C217.695 279.68 217.095 276.92 217.035 273.92H229.905C230.145 276.14 231.105 278.06 232.785 279.68C234.525 281.3 236.895 282.11 239.895 282.11C241.335 282.11 242.655 281.84 243.855 281.3C245.055 280.76 246.105 280.04 247.005 279.14C247.905 278.24 248.595 277.19 249.075 275.99C249.615 274.73 249.885 273.38 249.885 271.94C249.885 270.5 249.615 269.18 249.075 267.98C248.595 266.72 247.875 265.64 246.915 264.74C246.015 263.84 244.935 263.15 243.675 262.67C242.475 262.13 241.155 261.86 239.715 261.86C237.675 261.86 235.875 262.34 234.315 263.3C232.755 264.26 231.465 265.46 230.445 266.9L218.565 264.47ZM299.656 245.3C299.656 247.4 299.236 249.35 298.396 251.15C297.616 252.95 296.506 254.54 295.066 255.92C293.686 257.24 292.066 258.29 290.206 259.07C288.346 259.79 286.336 260.15 284.176 260.15C282.016 260.15 280.006 259.79 278.146 259.07C276.286 258.29 274.666 257.24 273.286 255.92C271.906 254.54 270.796 252.95 269.956 251.15C269.176 249.35 268.786 247.4 268.786 245.3C268.786 243.2 269.176 241.25 269.956 239.45C270.796 237.65 271.906 236.09 273.286 234.77C274.666 233.39 276.286 232.34 278.146 231.62C280.006 230.84 282.016 230.45 284.176 230.45C286.336 230.45 288.346 230.84 290.206 231.62C292.066 232.34 293.686 233.39 295.066 234.77C296.506 236.09 297.616 237.65 298.396 239.45C299.236 241.25 299.656 243.2 299.656 245.3ZM284.176 251.51C285.916 251.51 287.356 250.91 288.496 249.71C289.636 248.51 290.206 247.04 290.206 245.3C290.206 243.56 289.636 242.09 288.496 240.89C287.356 239.69 285.916 239.09 284.176 239.09C282.436 239.09 280.996 239.69 279.856 240.89C278.716 242.09 278.146 243.56 278.146 245.3C278.146 247.04 278.716 248.51 279.856 249.71C280.996 250.91 282.436 251.51 284.176 251.51ZM274.456 293L320.266 231.17H332.236L286.426 293H274.456ZM322.426 293.72C320.266 293.72 318.256 293.36 316.396 292.64C314.536 291.86 312.916 290.81 311.536 289.49C310.156 288.11 309.046 286.52 308.206 284.72C307.426 282.92 307.036 280.97 307.036 278.87C307.036 276.77 307.426 274.82 308.206 273.02C309.046 271.22 310.156 269.66 311.536 268.34C312.916 266.96 314.536 265.91 316.396 265.19C318.256 264.41 320.266 264.02 322.426 264.02C324.586 264.02 326.596 264.41 328.456 265.19C330.376 265.91 332.026 266.96 333.406 268.34C334.786 269.66 335.866 271.22 336.646 273.02C337.486 274.82 337.906 276.77 337.906 278.87C337.906 280.97 337.486 282.92 336.646 284.72C335.866 286.52 334.786 288.11 333.406 289.49C332.026 290.81 330.376 291.86 328.456 292.64C326.596 293.36 324.586 293.72 322.426 293.72ZM322.426 285.08C324.166 285.08 325.606 284.48 326.746 283.28C327.946 282.08 328.546 280.61 328.546 278.87C328.546 277.13 327.946 275.66 326.746 274.46C325.606 273.26 324.166 272.66 322.426 272.66C320.686 272.66 319.246 273.26 318.106 274.46C316.966 275.66 316.396 277.13 316.396 278.87C316.396 280.61 316.966 282.08 318.106 283.28C319.246 284.48 320.686 285.08 322.426 285.08Z" fill="black"/>
</g>
<defs>
<filter id="filter0_i_1_5" x="-0.000488281" y="8.8017" width="500.001" height="495.198" filterUnits="userSpaceOnUse" color-interpolation-filters="sRGB">
<feFlood flood-opacity="0" result="BackgroundImageFix"/>
<feBlend mode="normal" in="SourceGraphic" in2="BackgroundImageFix" result="shape"/>
<feColorMatrix in="SourceAlpha" type="matrix" values="0 0 0 0 0 0 0 0 0 0 0 0 0 0 0 0 0 0 127 0" result="hardAlpha"/>
<feOffset dy="4"/>
<feGaussianBlur stdDeviation="2"/>
<feComposite in2="hardAlpha" operator="arithmetic" k2="-1" k3="1"/>
<feColorMatrix type="matrix" values="0 0 0 0 0 0 0 0 0 0 0 0 0 0 0 0 0 0 0.25 0"/>
<feBlend mode="normal" in2="shape" result="effect1_innerShadow_1_5"/>
</filter>
<filter id="filter1_i_1_5" x="-0.000488281" y="8.8017" width="500.001" height="495.198" filterUnits="userSpaceOnUse" color-interpolation-filters="sRGB">
<feFlood flood-opacity="0" result="BackgroundImageFix"/>
<feBlend mode="normal" in="SourceGraphic" in2="BackgroundImageFix" result="shape"/>
<feColorMatrix in="SourceAlpha" type="matrix" values="0 0 0 0 0 0 0 0 0 0 0 0 0 0 0 0 0 0 127 0" result="hardAlpha"/>
<feOffset dy="4"/>
<feGaussianBlur stdDeviation="2"/>
<feComposite in2="hardAlpha" operator="arithmetic" k2="-1" k3="1"/>
<feColorMatrix type="matrix" values="0 0 0 0 0 0 0 0 0 0 0 0 0 0 0 0 0 0 0.25 0"/>
<feBlend mode="normal" in2="shape" result="effect1_innerShadow_1_5"/>
</filter>
<linearGradient id="paint0_linear_1_5" x1="250" y1="0" x2="250" y2="500" gradientUnits="userSpaceOnUse">
<stop stop-color="#4158D0"/>
<stop offset="0.489583" stop-color="#C850C0"/>
<stop offset="1" stop-color="#FFCC70"/>
</linearGradient>
</defs>
</svg>
