<svg width="500" height="500" viewBox="0 0 500 500" fill="none" xmlns="http://www.w3.org/2000/svg">
    <g filter="url(#filter0_i_1_5)">
        <g filter="url(#filter1_i_1_5)">
            <path d="M468.75 250C486.009 250 500.201 264.045 498.049 281.169C495.27 303.29 489.538 324.987 480.97 345.671C468.406 376.002 449.991 403.562 426.777 426.777C403.562 449.991 376.002 468.406 345.671 480.97C315.339 493.534 282.83 500 250 500C217.169 500 184.66 493.534 154.329 480.97C123.998 468.406 96.4379 449.991 73.2233 426.777C50.0086 403.562 31.5938 376.002 19.0301 345.671C10.4624 324.987 4.73023 303.29 1.95059 281.169C-0.201182 264.045 13.9911 250 31.25 250V250C48.5089 250 62.235 264.086 65.0982 281.106C67.4388 295.019 71.3479 308.657 76.7726 321.753C86.1953 344.502 100.006 365.171 117.417 382.582C134.828 399.993 155.498 413.805 178.247 423.227C200.995 432.65 225.377 437.5 250 437.5C274.623 437.5 299.005 432.65 321.753 423.227C344.502 413.805 365.172 399.994 382.583 382.583C399.993 365.172 413.805 344.502 423.227 321.753C428.652 308.657 432.561 295.019 434.902 281.106C437.765 264.086 451.491 250 468.75 250V250Z" fill="url(#paint0_linear_1_5)"/>
        </g>
        <path d="M161.04 264.47L165.63 231.17H201.09V242.69H175.71L174 254.48C175.44 253.28 177.15 252.38 179.13 251.78C181.17 251.12 183.27 250.79 185.43 250.79C188.37 250.79 191.07 251.33 193.53 252.41C195.99 253.49 198.09 254.96 199.83 256.82C201.63 258.68 203.01 260.87 203.97 263.39C204.99 265.85 205.5 268.49 205.5 271.31C205.5 274.55 204.9 277.58 203.7 280.4C202.56 283.16 200.94 285.56 198.84 287.6C196.8 289.64 194.37 291.26 191.55 292.46C188.73 293.6 185.7 294.17 182.46 294.17C179.04 294.17 175.92 293.69 173.1 292.73C170.34 291.71 167.97 290.33 165.99 288.59C164.01 286.79 162.45 284.66 161.31 282.2C160.17 279.68 159.57 276.92 159.51 273.92H172.38C172.62 276.14 173.58 278.06 175.26 279.68C177 281.3 179.37 282.11 182.37 282.11C183.81 282.11 185.13 281.84 186.33 281.3C187.53 280.76 188.58 280.04 189.48 279.14C190.38 278.24 191.07 277.19 191.55 275.99C192.09 274.73 192.36 273.38 192.36 271.94C192.36 270.5 192.09 269.18 191.55 267.98C191.07 266.72 190.35 265.64 189.39 264.74C188.49 263.84 187.41 263.15 186.15 262.67C184.95 262.13 183.63 261.86 182.19 261.86C180.15 261.86 178.35 262.34 176.79 263.3C175.23 264.26 173.94 265.46 172.92 266.9L161.04 264.47ZM212.431 262.13C212.431 257.93 212.971 253.91 214.051 250.07C215.191 246.17 216.871 242.75 219.091 239.81C221.311 236.87 224.071 234.53 227.371 232.79C230.671 230.99 234.511 230.09 238.891 230.09C243.271 230.09 247.111 230.99 250.411 232.79C253.711 234.53 256.471 236.87 258.691 239.81C260.911 242.75 262.561 246.17 263.641 250.07C264.781 253.91 265.351 257.93 265.351 262.13C265.351 266.33 264.781 270.38 263.641 274.28C262.561 278.12 260.911 281.51 258.691 284.45C256.471 287.39 253.711 289.76 250.411 291.56C247.111 293.3 243.271 294.17 238.891 294.17C234.511 294.17 230.671 293.3 227.371 291.56C224.071 289.76 221.311 287.39 219.091 284.45C216.871 281.51 215.191 278.12 214.051 274.28C212.971 270.38 212.431 266.33 212.431 262.13ZM251.941 262.13C251.941 259.67 251.671 257.27 251.131 254.93C250.651 252.59 249.871 250.52 248.791 248.72C247.771 246.86 246.421 245.39 244.741 244.31C243.121 243.17 241.171 242.6 238.891 242.6C236.611 242.6 234.631 243.17 232.951 244.31C231.331 245.39 229.981 246.86 228.901 248.72C227.881 250.52 227.101 252.59 226.561 254.93C226.081 257.27 225.841 259.67 225.841 262.13C225.841 264.59 226.081 266.99 226.561 269.33C227.101 271.67 227.881 273.77 228.901 275.63C229.981 277.43 231.331 278.9 232.951 280.04C234.631 281.12 236.611 281.66 238.891 281.66C241.171 281.66 243.121 281.12 244.741 280.04C246.421 278.9 247.771 277.43 248.791 275.63C249.871 273.77 250.651 271.67 251.131 269.33C251.671 266.99 251.941 264.59 251.941 262.13ZM302.951 245.3C302.951 247.4 302.531 249.35 301.691 251.15C300.911 252.95 299.801 254.54 298.361 255.92C296.981 257.24 295.361 258.29 293.501 259.07C291.641 259.79 289.631 260.15 287.471 260.15C285.311 260.15 283.301 259.79 281.441 259.07C279.581 258.29 277.961 257.24 276.581 255.92C275.201 254.54 274.091 252.95 273.251 251.15C272.471 249.35 272.081 247.4 272.081 245.3C272.081 243.2 272.471 241.25 273.251 239.45C274.091 237.65 275.201 236.09 276.581 234.77C277.961 233.39 279.581 232.34 281.441 231.62C283.301 230.84 285.311 230.45 287.471 230.45C289.631 230.45 291.641 230.84 293.501 231.62C295.361 232.34 296.981 233.39 298.361 234.77C299.801 236.09 300.911 237.65 301.691 239.45C302.531 241.25 302.951 243.2 302.951 245.3ZM287.471 251.51C289.211 251.51 290.651 250.91 291.791 249.71C292.931 248.51 293.501 247.04 293.501 245.3C293.501 243.56 292.931 242.09 291.791 240.89C290.651 239.69 289.211 239.09 287.471 239.09C285.731 239.09 284.291 239.69 283.151 240.89C282.011 242.09 281.441 243.56 281.441 245.3C281.441 247.04 282.011 248.51 283.151 249.71C284.291 250.91 285.731 251.51 287.471 251.51ZM277.751 293L323.561 231.17H335.531L289.721 293H277.751ZM325.721 293.72C323.561 293.72 321.551 293.36 319.691 292.64C317.831 291.86 316.211 290.81 314.831 289.49C313.451 288.11 312.341 286.52 311.501 284.72C310.721 282.92 310.331 280.97 310.331 278.87C310.331 276.77 310.721 274.82 311.501 273.02C312.341 271.22 313.451 269.66 314.831 268.34C316.211 266.96 317.831 265.91 319.691 265.19C321.551 264.41 323.561 264.02 325.721 264.02C327.881 264.02 329.891 264.41 331.751 265.19C333.671 265.91 335.321 266.96 336.701 268.34C338.081 269.66 339.161 271.22 339.941 273.02C340.781 274.82 341.201 276.77 341.201 278.87C341.201 280.97 340.781 282.92 339.941 284.72C339.161 286.52 338.081 288.11 336.701 289.49C335.321 290.81 333.671 291.86 331.751 292.64C329.891 293.36 327.881 293.72 325.721 293.72ZM325.721 285.08C327.461 285.08 328.901 284.48 330.041 283.28C331.241 282.08 331.841 280.61 331.841 278.87C331.841 277.13 331.241 275.66 330.041 274.46C328.901 273.26 327.461 272.66 325.721 272.66C323.981 272.66 322.541 273.26 321.401 274.46C320.261 275.66 319.691 277.13 319.691 278.87C319.691 280.61 320.261 282.08 321.401 283.28C322.541 284.48 323.981 285.08 325.721 285.08Z" fill="black"/>
    </g>
    <defs>
        <filter id="filter0_i_1_5" x="1.73419" y="230.09" width="496.532" height="273.91" filterUnits="userSpaceOnUse" color-interpolation-filters="sRGB">
            <feFlood flood-opacity="0" result="BackgroundImageFix"/>
            <feBlend mode="normal" in="SourceGraphic" in2="BackgroundImageFix" result="shape"/>
            <feColorMatrix in="SourceAlpha" type="matrix" values="0 0 0 0 0 0 0 0 0 0 0 0 0 0 0 0 0 0 127 0" result="hardAlpha"/>
            <feOffset dy="4"/>
            <feGaussianBlur stdDeviation="2"/>
            <feComposite in2="hardAlpha" operator="arithmetic" k2="-1" k3="1"/>
            <feColorMatrix type="matrix" values="0 0 0 0 0 0 0 0 0 0 0 0 0 0 0 0 0 0 0.25 0"/>
            <feBlend mode="normal" in2="shape" result="effect1_innerShadow_1_5"/>
        </filter>
        <filter id="filter1_i_1_5" x="1.73419" y="250" width="496.532" height="254" filterUnits="userSpaceOnUse" color-interpolation-filters="sRGB">
            <feFlood flood-opacity="0" result="BackgroundImageFix"/>
            <feBlend mode="normal" in="SourceGraphic" in2="BackgroundImageFix" result="shape"/>
            <feColorMatrix in="SourceAlpha" type="matrix" values="0 0 0 0 0 0 0 0 0 0 0 0 0 0 0 0 0 0 127 0" result="hardAlpha"/>
            <feOffset dy="4"/>
            <feGaussianBlur stdDeviation="2"/>
            <feComposite in2="hardAlpha" operator="arithmetic" k2="-1" k3="1"/>
            <feColorMatrix type="matrix" values="0 0 0 0 0 0 0 0 0 0 0 0 0 0 0 0 0 0 0.25 0"/>
            <feBlend mode="normal" in2="shape" result="effect1_innerShadow_1_5"/>
        </filter>
        <linearGradient id="paint0_linear_1_5" x1="250" y1="0" x2="250" y2="500" gradientUnits="userSpaceOnUse">
            <stop stop-color="#4158D0"/>
            <stop offset="0.489583" stop-color="#C850C0"/>
            <stop offset="1" stop-color="#FFCC70"/>
        </linearGradient>
    </defs>
</svg>
