<svg width="500" height="500" viewBox="0 0 500 500" fill="none" xmlns="http://www.w3.org/2000/svg">
<g filter="url(#filter0_i_1_5)">
<g filter="url(#filter1_i_1_5)">
<path d="M426.972 378.578C440.935 388.723 444.162 408.427 432.355 421.016C412.622 442.058 389.34 459.584 363.498 472.752C328.345 490.663 289.453 500 250 500C210.547 500 171.655 490.663 136.502 472.752C110.66 459.584 87.3778 442.058 67.6446 421.016C55.8384 408.427 59.0648 388.723 73.0275 378.578V378.578C86.9903 368.433 106.374 371.761 118.695 383.848C132.267 397.162 147.829 408.377 164.877 417.064C191.241 430.497 220.411 437.5 250 437.5C279.589 437.5 308.759 430.497 335.123 417.064C352.171 408.377 367.733 397.162 381.305 383.848C393.626 371.761 413.01 368.434 426.972 378.578V378.578Z" fill="url(#paint0_linear_1_5)"/>
</g>
<path d="M181.38 255.83C182.46 255.83 183.48 255.65 184.44 255.29C185.4 254.87 186.21 254.36 186.87 253.76C187.59 253.1 188.16 252.35 188.58 251.51C189 250.61 189.21 249.68 189.21 248.72C189.21 246.8 188.52 245.21 187.14 243.95C185.76 242.63 183.96 241.97 181.74 241.97C179.34 241.97 177.42 242.78 175.98 244.4C174.54 246.02 173.79 248.12 173.73 250.7H160.95C160.95 247.46 161.46 244.58 162.48 242.06C163.56 239.48 165 237.32 166.8 235.58C168.66 233.78 170.88 232.43 173.46 231.53C176.04 230.57 178.86 230.09 181.92 230.09C184.86 230.09 187.59 230.54 190.11 231.44C192.63 232.28 194.79 233.48 196.59 235.04C198.45 236.54 199.86 238.34 200.82 240.44C201.84 242.48 202.35 244.73 202.35 247.19C202.35 252.83 199.86 257.12 194.88 260.06C198.12 261.44 200.61 263.36 202.35 265.82C204.09 268.28 204.96 271.22 204.96 274.64C204.96 277.52 204.39 280.16 203.25 282.56C202.11 284.96 200.52 287.03 198.48 288.77C196.5 290.45 194.13 291.77 191.37 292.73C188.61 293.69 185.58 294.17 182.28 294.17C178.86 294.17 175.77 293.69 173.01 292.73C170.25 291.71 167.88 290.27 165.9 288.41C163.92 286.49 162.39 284.18 161.31 281.48C160.23 278.78 159.66 275.72 159.6 272.3H172.65C172.77 275.06 173.7 277.37 175.44 279.23C177.24 281.09 179.58 282.02 182.46 282.02C185.16 282.02 187.35 281.3 189.03 279.86C190.71 278.42 191.55 276.44 191.55 273.92C191.55 271.52 190.62 269.6 188.76 268.16C186.96 266.72 184.56 266 181.56 266H178.68V255.83H181.38ZM211.991 262.13C211.991 257.93 212.531 253.91 213.611 250.07C214.751 246.17 216.431 242.75 218.651 239.81C220.871 236.87 223.631 234.53 226.931 232.79C230.231 230.99 234.071 230.09 238.451 230.09C242.831 230.09 246.671 230.99 249.971 232.79C253.271 234.53 256.031 236.87 258.251 239.81C260.471 242.75 262.121 246.17 263.201 250.07C264.341 253.91 264.911 257.93 264.911 262.13C264.911 266.33 264.341 270.38 263.201 274.28C262.121 278.12 260.471 281.51 258.251 284.45C256.031 287.39 253.271 289.76 249.971 291.56C246.671 293.3 242.831 294.17 238.451 294.17C234.071 294.17 230.231 293.3 226.931 291.56C223.631 289.76 220.871 287.39 218.651 284.45C216.431 281.51 214.751 278.12 213.611 274.28C212.531 270.38 211.991 266.33 211.991 262.13ZM251.501 262.13C251.501 259.67 251.231 257.27 250.691 254.93C250.211 252.59 249.431 250.52 248.351 248.72C247.331 246.86 245.981 245.39 244.301 244.31C242.681 243.17 240.731 242.6 238.451 242.6C236.171 242.6 234.191 243.17 232.511 244.31C230.891 245.39 229.541 246.86 228.461 248.72C227.441 250.52 226.661 252.59 226.121 254.93C225.641 257.27 225.401 259.67 225.401 262.13C225.401 264.59 225.641 266.99 226.121 269.33C226.661 271.67 227.441 273.77 228.461 275.63C229.541 277.43 230.891 278.9 232.511 280.04C234.191 281.12 236.171 281.66 238.451 281.66C240.731 281.66 242.681 281.12 244.301 280.04C245.981 278.9 247.331 277.43 248.351 275.63C249.431 273.77 250.211 271.67 250.691 269.33C251.231 266.99 251.501 264.59 251.501 262.13ZM302.512 245.3C302.512 247.4 302.092 249.35 301.252 251.15C300.472 252.95 299.362 254.54 297.922 255.92C296.542 257.24 294.922 258.29 293.062 259.07C291.202 259.79 289.192 260.15 287.032 260.15C284.872 260.15 282.862 259.79 281.002 259.07C279.142 258.29 277.522 257.24 276.142 255.92C274.762 254.54 273.652 252.95 272.812 251.15C272.032 249.35 271.642 247.4 271.642 245.3C271.642 243.2 272.032 241.25 272.812 239.45C273.652 237.65 274.762 236.09 276.142 234.77C277.522 233.39 279.142 232.34 281.002 231.62C282.862 230.84 284.872 230.45 287.032 230.45C289.192 230.45 291.202 230.84 293.062 231.62C294.922 232.34 296.542 233.39 297.922 234.77C299.362 236.09 300.472 237.65 301.252 239.45C302.092 241.25 302.512 243.2 302.512 245.3ZM287.032 251.51C288.772 251.51 290.212 250.91 291.352 249.71C292.492 248.51 293.062 247.04 293.062 245.3C293.062 243.56 292.492 242.09 291.352 240.89C290.212 239.69 288.772 239.09 287.032 239.09C285.292 239.09 283.852 239.69 282.712 240.89C281.572 242.09 281.002 243.56 281.002 245.3C281.002 247.04 281.572 248.51 282.712 249.71C283.852 250.91 285.292 251.51 287.032 251.51ZM277.312 293L323.122 231.17H335.092L289.282 293H277.312ZM325.282 293.72C323.122 293.72 321.112 293.36 319.252 292.64C317.392 291.86 315.772 290.81 314.392 289.49C313.012 288.11 311.902 286.52 311.062 284.72C310.282 282.92 309.892 280.97 309.892 278.87C309.892 276.77 310.282 274.82 311.062 273.02C311.902 271.22 313.012 269.66 314.392 268.34C315.772 266.96 317.392 265.91 319.252 265.19C321.112 264.41 323.122 264.02 325.282 264.02C327.442 264.02 329.452 264.41 331.312 265.19C333.232 265.91 334.882 266.96 336.262 268.34C337.642 269.66 338.722 271.22 339.502 273.02C340.342 274.82 340.762 276.77 340.762 278.87C340.762 280.97 340.342 282.92 339.502 284.72C338.722 286.52 337.642 288.11 336.262 289.49C334.882 290.81 333.232 291.86 331.312 292.64C329.452 293.36 327.442 293.72 325.282 293.72ZM325.282 285.08C327.022 285.08 328.462 284.48 329.602 283.28C330.802 282.08 331.402 280.61 331.402 278.87C331.402 277.13 330.802 275.66 329.602 274.46C328.462 273.26 327.022 272.66 325.282 272.66C323.542 272.66 322.102 273.26 320.962 274.46C319.822 275.66 319.252 277.13 319.252 278.87C319.252 280.61 319.822 282.08 320.962 283.28C322.102 284.48 323.542 285.08 325.282 285.08Z" fill="black"/>
</g>
<defs>
<filter id="filter0_i_1_5" x="60.4055" y="230.09" width="379.189" height="273.91" filterUnits="userSpaceOnUse" color-interpolation-filters="sRGB">
<feFlood flood-opacity="0" result="BackgroundImageFix"/>
<feBlend mode="normal" in="SourceGraphic" in2="BackgroundImageFix" result="shape"/>
<feColorMatrix in="SourceAlpha" type="matrix" values="0 0 0 0 0 0 0 0 0 0 0 0 0 0 0 0 0 0 127 0" result="hardAlpha"/>
<feOffset dy="4"/>
<feGaussianBlur stdDeviation="2"/>
<feComposite in2="hardAlpha" operator="arithmetic" k2="-1" k3="1"/>
<feColorMatrix type="matrix" values="0 0 0 0 0 0 0 0 0 0 0 0 0 0 0 0 0 0 0.25 0"/>
<feBlend mode="normal" in2="shape" result="effect1_innerShadow_1_5"/>
</filter>
<filter id="filter1_i_1_5" x="60.4055" y="372.569" width="379.189" height="131.431" filterUnits="userSpaceOnUse" color-interpolation-filters="sRGB">
<feFlood flood-opacity="0" result="BackgroundImageFix"/>
<feBlend mode="normal" in="SourceGraphic" in2="BackgroundImageFix" result="shape"/>
<feColorMatrix in="SourceAlpha" type="matrix" values="0 0 0 0 0 0 0 0 0 0 0 0 0 0 0 0 0 0 127 0" result="hardAlpha"/>
<feOffset dy="4"/>
<feGaussianBlur stdDeviation="2"/>
<feComposite in2="hardAlpha" operator="arithmetic" k2="-1" k3="1"/>
<feColorMatrix type="matrix" values="0 0 0 0 0 0 0 0 0 0 0 0 0 0 0 0 0 0 0.25 0"/>
<feBlend mode="normal" in2="shape" result="effect1_innerShadow_1_5"/>
</filter>
<linearGradient id="paint0_linear_1_5" x1="250" y1="0" x2="250" y2="500" gradientUnits="userSpaceOnUse">
<stop stop-color="#4158D0"/>
<stop offset="0.489583" stop-color="#C850C0"/>
<stop offset="1" stop-color="#FFCC70"/>
</linearGradient>
</defs>
</svg>
